# xmcd CD database file
#
# Track frame offsets:
#	150
#	27337
#	42462
#
# Disc length: 919 seconds
#
# Revision: 0
# Processed by: cddbd v1.5.1PL0 Copyright (c) Steve Scherf et al.
# Submitted via: CDex 1.51
#
DISCID=20039503
DTITLE=コレクターズ - 世界を止めて
DYEAR=1993
DGENRE=Rock
TTITLE0=世界を止めて
TTITLE1=きみの素敵な金時計(private live recording)
TTITLE2=SUMMER OF LOVE(private live recording)
EXTD=YEAR: 1993
EXTT0=
EXTT1=
EXTT2=
PLAYORDER=
